<?xml version="1.0" encoding="UTF-8"?>
<svg id="Capa_2" data-name="Capa 2" xmlns="http://www.w3.org/2000/svg" viewBox="0 0 388.92 598">
  <defs>
    <style>
      .cls-1 {
        fill: #666;
      }

      .cls-2 {
        fill: #444;
      }

      .cls-3 {
        fill: #222;
      }
    </style>
  </defs>
  <g id="Capa_1-2" data-name="Capa 1">
    <path class="cls-3" d="M1.79,218.71l3.27-19.92c6.75-30.12,32.24-70.35,68.65-59.27,2.48.76,10.86,4.5,11.1,7,.18,1.93-9.47,13.41-11.48,16.56-13.11,20.53-15.16,40.18-24.4,61.59-9.41,21.68-26.05,47.05-44.67,61.32-2.6.57-3.74-25.09-4.2-41.55-.24-8.62.34-17.23,1.74-25.73Z"/>
    <path class="cls-1" d="M182.83,527c-9.14-1.04-17.65-4.54-25.65-8.82-48.76-26.09-108.96-102.64-130.74-153.2-7.6-17.64-12.14-36.38-18.45-54.47-.03-3.77,5.58-6.52,7.89-8.99,7.07-7.59,13.97-15.47,20.54-23.51,1.32-.33,1.81.78,2.27,1.71,2.34,4.71,3.38,19.63,4.89,26.1,11.98,51.18,43.76,100.13,76.31,140.66,16.83,20.96,37.78,41.08,53.36,62.61,1.81,2.5,11.34,16.01,9.58,17.91Z"/>
    <path class="cls-2" d="M65.88,235c19.23,94.13,59.16,126.65,117.47,195.99,4.3,5.23,10.23,11.28,10.29,18.5.02,2.73.7,10.52.59,13.44-.34,8.8-1.42,13.49-3.41,22.07-1.49,1.04-13.07-8.78-14.99-10.48-39.55-34.99-79.65-84.39-101.11-132.84-7.5-16.92-25.9-66.34-23.73-83.09.51-3.95,8.65-20.15,11.44-22.55,1.25-1.08,1.75-1.28,3.46-1.03Z"/>
    <path class="cls-1" d="M388.74,382c-.99,11.51-4.67,28.55-7.48,40.01-4.88,19.88-11.84,40.02-27.49,53.99,5.83-43.13,7.29-87.38-9.04-128.48-.09-1.6-.14-1.72,1.51-1.51,7.44.96,24.07,7.34,31.76,10.24,3.62,1.37,8.47,2.65,10.75,5.75-.41,6.5.55,13.59,0,20Z"/>
    <path class="cls-2" d="M234.82,595c30.01-94.66,38.21-195.61,13.91-292.43-2.1-8.69-6.09-17.86-6.43-26.57,9.85,9.45,21.81,18.1,31.51,27.48,9.78,9.45,6.69,10.56,9.44,22.55,18.37,80.01,24.72,176.1-25.64,246.28-6.1,8.5-13.44,17.74-22.79,22.68Z"/>
    <path class="cls-1" d="M335.51,341.25c2.29,2.38.9,13.1,1.38,17.13,12.87,55.62,11.04,124.73-26.14,171.09-3.88,4.75-7.87,9.05-12.96,12.53,2.61-15.1,6.89-29.86,9.51-44.98,8.47-48.95,8.59-96.45-2.01-145.03-2.2-10.08-5.73-19.82-7.5-29.98,1.11-1.19,12.92,7.42,14.97,8.51,4.4,2.36,20.64,8.54,22.75,10.73Z"/>
    <path class="cls-3" d="M385.75,321c-4.91-45.26-36.5-111.23-67.95-140.51-26.97-25.11-70.93-40.27-86.97,4.51h0c-3.49,9.75-3.47,12.81-2,23,5.58,38.65,43.12,77.57,75.05,97.42,26.21,16.29,48.3,22.07,76.88,31.58,1.65.55,3.48,2.68,5.99,2,.42-6.07-.35-12.04-.99-18Z"/>
    <path d="M304.47,45.81c-3.53-2.08-14.4-6.42-18.13-5.83-5.48.87-7.04,18.67-19.26,11.23-7.28-4.43,7.8-13.66,4.62-18.12-24.98-7.93-45.63-27.68-71.88-33.09h-17.99c-2.21,2.15-8.06,2.06-9.56,5.01-1.53,3.01,4.23,5.33,3.46,8.29-.48,1.85-8.67,7.53-10.86,10.23-18.84,23.14-4.24,53.78,21.44,63.5,6.12,2.31,23.54,4.15,26.5,6.49,6.52,5.16-12.23,8.44-15.44,8.54-31.39,1-58.55-24.44-57.44-56.38.48-13.89,8.55-22.76,16.91-32.66-14.43,4.28-29.65,3.7-44.19,7.27-6.04,1.49-26.53,8.76-28.38,14.69-4.13,13.2,25.14.59,29.09,1.02.88.09.66,1.8.5,1.99-.32.38-7.39,3.62-8.91,4.6-9.35,6-20.4,14.22-25.89,24.1-3.8,6.84-3.6,13.87,5.88,10.87,3.76-1.19,16.4-15.89,18.92-13.55-1.27,4.02-4.44,7.27-6.51,10.98-2.21,3.96-5.45,10.02-6.76,14.24-1.17,3.79-4.26,17.99-.76,20.31,8.7,5.78,15.72-18.82,20.03-14.53-4.51,11.53-4.15,23.46-6.15,35.34-4.66,27.67-20.04,45.81-21.82,76.17-4.01,68.34,35.61,119.97,78.44,167.5,7.22,8.01,18.33,21.22,26.48,27.5,2.39,1.84,5.52,4.14,6.81-.23.93-3.14.52-19.11.2-23.29-.06-.85.56-27.1-.41-27.37.62-29-1.91-32.62-1.59-61.63,2.78-.48,1.68.58,2.25,2.19,24.76,83,20.35,224.24-5.25,306.8,6.66-1.89,12.67-10.22,16.81-15.68,31.72-42.2,39.24-94.75,40.17-146.31,1.31-42.06-2.47-81.8-10.47-123.02-2.27-11.57-7.39-25.54-8.39-36.61-.52-5.71.64-12.48-.19-17.81-1.02-6.5-10.4-22.13-12.95-31.05-7.46-26.12-4.23-56.2,17.48-74.54,11.23-9.48,15.86-4.06,12.03-21.99-1.54-7.21-4.63-14.26-8.48-20.52-8.16-13.27-20.98-18.55,2.96-25.98,10.65-3.31,21.92-3.88,32.99-4.49,1.78-1.7-4.31-6.92-5.66-7.83-5.53-3.69-20.68-7.1-24.05-10.44-1.25-1.23-3.36-5.88-.64-6.65,2.59-.73,26.08,6.28,29.73,8.04,9.21,4.47,7.72,6.82,12.2,13.79,3.79,5.91,11.05,3.11,16.38,6.62,7.58,4.99,3.34,16.67,4.04,17.46,21.23-9.46,20.97-43.83,1.68-55.19ZM209.55,45.67c-5.02,0-9.09-4.07-9.09-9.1.48-12.07,17.71-12.07,18.19,0,0,5.03-4.07,9.1-9.09,9.1Z"/>
  </g>
</svg>